# xmcd
# 
# Track frame offsets:
#     150
#     22123
#     41194
#     61606
#     79144
#     105491
#     119688
#     137625
#     152416
#     170366
#     197258
#     218675
#     251595
#     303098
#     317487
# 
# Disc length: 4568
# 
# Revision: 2
# Processed by: cddbd v1.5.2PL0 Copyright (c) Steve Scherf et al.
# Submitted via: fre:ac v1.1beta1pre5
# 
DISCID=bc11d60f
DTITLE=John Denver - John Denver In Concert - DISC 1
DYEAR=2007
DGENRE=Country
TTITLE0=Eagles And Horses
TTITLE1=Rocky Mountain High
TTITLE2=Today
TTITLE3=Wild Montana Skies
TTITLE4=Darcy Farrow
TTITLE5=Whispering Jesse
TTITLE6=Old English Folk Song
TTITLE7=Take Me Home Country Roads
TTITLE8=Shanghai Breezes
TTITLE9=For You
TTITLE10=Is It Love
TTITLE11=Tongue
TTITLE12=Fox Fire Suite
TTITLE13=Annie´s Song
TTITLE14=Amazon (Let This Be A Voice)
EXTD=
EXTT0=
EXTT1=
EXTT2=
EXTT3=
EXTT4=
EXTT5=
EXTT6=
EXTT7=
EXTT8=
EXTT9=
EXTT10=
EXTT11=
EXTT12=
EXTT13=
EXTT14=
PLAYORDER=
